<svg xmlns="http://www.w3.org/2000/svg" viewBox="0 0 560 200" fill="none">
  <rect width="560" height="200" rx="12" fill="#f4f7fa"/>
  <rect x="24" y="32" width="120" height="136" rx="10" fill="#fff" stroke="#d8e0ea" stroke-width="2"/>
  <rect x="44" y="52" width="80" height="8" rx="4" fill="#e5e7eb"/>
  <rect x="44" y="72" width="60" height="24" rx="4" fill="#0f2240" opacity="0.1"/>
  <rect x="44" y="108" width="70" height="6" rx="3" fill="#d8e0ea"/>
  <rect x="44" y="122" width="70" height="6" rx="3" fill="#d8e0ea"/>
  <rect x="44" y="136" width="70" height="6" rx="3" fill="#d8e0ea"/>
  <rect x="220" y="20" width="120" height="148" rx="10" fill="#fff" stroke="#0d9488" stroke-width="3"/>
  <rect x="248" y="8" width="64" height="20" rx="10" fill="#0d9488"/>
  <rect x="240" y="44" width="80" height="8" rx="4" fill="#0f2240" opacity="0.15"/>
  <rect x="240" y="64" width="80" height="32" rx="4" fill="#0d9488" opacity="0.15"/>
  <rect x="240" y="108" width="70" height="6" rx="3" fill="#0d9488" opacity="0.4"/>
  <rect x="240" y="122" width="70" height="6" rx="3" fill="#0d9488" opacity="0.4"/>
  <rect x="240" y="136" width="70" height="6" rx="3" fill="#0d9488" opacity="0.4"/>
  <rect x="416" y="32" width="120" height="136" rx="10" fill="#0f2240"/>
  <rect x="436" y="52" width="80" height="8" rx="4" fill="#1e3d6e"/>
  <path d="M436 120 L456 90 L476 100 L496 70 L516 80" stroke="#14b8a6" stroke-width="2.5" stroke-linecap="round"/>
  <circle cx="516" cy="80" r="5" fill="#f59e0b"/>
  <rect x="436" y="136" width="70" height="6" rx="3" fill="#1e3d6e"/>
  <rect x="436" y="150" width="70" height="6" rx="3" fill="#1e3d6e"/>
  <path d="M156 100 L196 100" stroke="#0d9488" stroke-width="2" marker-end="url(#arrow)"/>
  <path d="M352 100 L392 100" stroke="#0d9488" stroke-width="2"/>
  <defs>
    <marker id="arrow" markerWidth="8" markerHeight="8" refX="6" refY="3" orient="auto">
      <path d="M0,0 L6,3 L0,6" fill="#0d9488"/>
    </marker>
  </defs>
</svg>
