<svg xmlns="http://www.w3.org/2000/svg" viewBox="0 0 400 200" fill="none">
  <rect width="400" height="200" fill="#1e3d6e"/>
  <path d="M0 80 Q100 60 200 90 T400 70 V200 H0Z" fill="#163058" opacity="0.6"/>
  <path d="M0 120 Q150 100 250 130 T400 110 V200 H0Z" fill="#0f2240" opacity="0.5"/>
  <path d="M40 50 L120 80 L200 60 L280 100 L360 70" stroke="#334155" stroke-width="8" stroke-linecap="round" opacity="0.4"/>
  <path d="M40 50 L120 80 L200 60 L280 100 L360 70" stroke="#475569" stroke-width="2" stroke-linecap="round" opacity="0.6"/>
  <path d="M80 90 L160 70 L240 110 L320 85" stroke="#64748b" stroke-width="1.5" opacity="0.5"/>
  <rect x="60" y="40" width="30" height="20" rx="2" fill="#0a1628" opacity="0.3"/>
  <rect x="180" y="30" width="40" height="25" rx="2" fill="#0a1628" opacity="0.3"/>
  <rect x="280" y="50" width="35" height="18" rx="2" fill="#0a1628" opacity="0.3"/>
  <path d="M100 80 Q130 50 160 80" stroke="#14b8a6" stroke-width="2.5" stroke-dasharray="6 4" opacity="0.8"/>
  <circle cx="100" cy="80" r="6" fill="#f59e0b" stroke="#fff" stroke-width="2"/>
  <circle cx="160" cy="70" r="5" fill="#14b8a6" stroke="#fff" stroke-width="2"/>
  <circle cx="240" cy="110" r="5" fill="#14b8a6" stroke="#fff" stroke-width="2"/>
  <circle cx="320" cy="85" r="6" fill="#f59e0b" stroke="#fff" stroke-width="2"/>
</svg>
