<svg xmlns="http://www.w3.org/2000/svg" viewBox="0 0 200 160" fill="none">
  <rect x="20" y="30" width="160" height="110" rx="12" fill="#f4f7fa" stroke="#d8e0ea" stroke-width="2"/>
  <rect x="35" y="45" width="130" height="8" rx="4" fill="#d8e0ea"/>
  <rect x="35" y="62" width="90" height="6" rx="3" fill="#d8e0ea"/>
  <rect x="35" y="76" width="110" height="6" rx="3" fill="#d8e0ea"/>
  <circle cx="100" cy="105" r="28" fill="#0d9488"/>
  <path d="M88 105l8 8 16-16" stroke="#fff" stroke-width="4" stroke-linecap="round" stroke-linejoin="round"/>
  <rect x="60" y="10" width="80" height="14" rx="7" fill="#0f2240"/>
  <circle cx="68" cy="17" r="3" fill="#ef4444"/>
  <circle cx="78" cy="17" r="3" fill="#eab308"/>
  <circle cx="88" cy="17" r="3" fill="#22c55e"/>
  <path d="M155 25l20-15 10 10-20 15-10-10z" fill="#f59e0b" opacity="0.9"/>
  <path d="M30 130l-15 10 5-18 10 8z" fill="#14b8a6" opacity="0.7"/>
</svg>
